<?xml version="1.0" encoding="utf-8"?>
<!-- Generator: Adobe Illustrator 24.0.0, SVG Export Plug-In . SVG Version: 6.00 Build 0)  -->
<svg version="1.1" id="Layer_1" xmlns="http://www.w3.org/2000/svg" xmlns:xlink="http://www.w3.org/1999/xlink" x="0px" y="0px"
	 viewBox="0 0 512 512" style="enable-background:new 0 0 512 512;" xml:space="preserve">
<style type="text/css">
	.st0{fill:#FFFFFF;}
</style>
<path d="M352,384H160.1v-16c-0.3-25.8-10.8-50.5-29.3-68.5c-68.2-69.1-67.5-180.3,1.5-248.6c69-68.3,180.2-67.8,248.6,1
	c68.4,68.8,68.2,180.1-0.5,248.6C362.2,318.3,352,342.7,352,368V384z"/>
<path d="M176.1,416h160c8.8,0,16,7.2,16,16c0,8.8-7.2,16-16,16h-160c-8.8,0-16-7.2-16-16C160.1,423.2,167.3,416,176.1,416z"/>
<path d="M208.1,480h96c8.8,0,16,7.2,16,16c0,8.8-7.2,16-16,16h-96c-8.8,0-16-7.2-16-16C192.1,487.2,199.3,480,208.1,480z"/>
<g>
	<path class="st0" d="M144.1,160.1h32v32h-32V160.1z"/>
	<path class="st0" d="M208.1,192.1h32V384h32V192.1h32v-32h-96V192.1z"/>
	<path class="st0" d="M336,160.1h32v32h-32V160.1z"/>
</g>
</svg>
